<svg width="107" height="15" viewBox="0 0 107 15" fill="none" xmlns="http://www.w3.org/2000/svg">
<path d="M10.96 7.46C10.96 8.42 10.7867 9.32667 10.44 10.18C10.1067 11.02 9.63333 11.7667 9.02 12.42C8.40667 13.0733 7.68667 13.5867 6.86 13.96C6.04667 14.32 5.16667 14.5 4.22 14.5H1.49012e-08V0.44H4.22C5.18 0.44 6.06667 0.626666 6.88 1C7.70667 1.37333 8.42 1.88667 9.02 2.54C9.63333 3.19333 10.1067 3.94 10.44 4.78C10.7867 5.62 10.96 6.51333 10.96 7.46ZM8.48 7.46C8.48 6.59333 8.29333 5.82 7.92 5.14C7.54667 4.44667 7.03333 3.9 6.38 3.5C5.74 3.1 5.02 2.9 4.22 2.9H2.4V12.04H4.22C5.03333 12.04 5.76 11.8333 6.4 11.42C7.04 11.0067 7.54667 10.4533 7.92 9.76C8.29333 9.06667 8.48 8.3 8.48 7.46ZM17.3939 14.76C16.4339 14.76 15.5872 14.5533 14.8539 14.14C14.1339 13.7133 13.5672 13.1267 13.1539 12.38C12.7539 11.62 12.5539 10.74 12.5539 9.74C12.5539 7.98 12.9939 6.65333 13.8739 5.76C14.7672 4.85333 15.9406 4.4 17.3939 4.4C18.3406 4.4 19.1739 4.6 19.8939 5C20.6272 5.4 21.2006 6 21.6139 6.8C22.0272 7.58667 22.2339 8.56667 22.2339 9.74C22.2339 10.74 22.0272 11.62 21.6139 12.38C21.2006 13.1267 20.6272 13.7133 19.8939 14.14C19.1739 14.5533 18.3406 14.76 17.3939 14.76ZM17.3939 12.46C17.9406 12.46 18.4006 12.3333 18.7739 12.08C19.1606 11.8133 19.4472 11.4733 19.6339 11.06C19.8339 10.6467 19.9339 10.2067 19.9339 9.74C19.9339 8.9 19.7139 8.18667 19.2739 7.6C18.8472 7 18.2206 6.7 17.3939 6.7C16.5939 6.7 15.9672 6.98667 15.5139 7.56C15.0739 8.13333 14.8539 8.86 14.8539 9.74C14.8539 10.22 14.9539 10.6667 15.1539 11.08C15.3539 11.4933 15.6406 11.8267 16.0139 12.08C16.4006 12.3333 16.8606 12.46 17.3939 12.46ZM32.4523 14.5H30.0523V13.72C29.8923 14.04 29.5857 14.28 29.1323 14.44C28.6923 14.6 28.1857 14.68 27.6123 14.68C27.0523 14.68 26.5057 14.6067 25.9723 14.46C25.4523 14.3 25.0257 14.0733 24.6923 13.78C23.8657 13.0333 23.4523 11.9267 23.4523 10.46V4.5H25.8523V10.46C25.8523 11.14 26.0523 11.6333 26.4523 11.94C26.8657 12.2333 27.379 12.38 27.9923 12.38C28.299 12.38 28.6123 12.3133 28.9323 12.18C29.2523 12.0467 29.519 11.84 29.7323 11.56C29.9457 11.28 30.0523 10.9133 30.0523 10.46V4.5H32.4523V14.5ZM43.2731 9.32C43.2731 10.0267 43.1798 10.7133 42.9931 11.38C42.8198 12.0467 42.5465 12.64 42.1731 13.16C41.7998 13.6667 41.3198 14.0533 40.7331 14.32C40.3465 14.4933 39.8931 14.5733 39.3731 14.56C38.8531 14.56 38.3598 14.4867 37.8931 14.34C37.4398 14.18 37.0931 13.9667 36.8531 13.7V14.5H34.4531V0.499999H36.8531V4.84C37.1065 4.65333 37.4398 4.52667 37.8531 4.46C38.2665 4.39333 38.6198 4.36 38.9131 4.36C39.8598 4.36 40.6531 4.58667 41.2931 5.04C41.9465 5.48 42.4398 6.07333 42.7731 6.82C43.1065 7.56667 43.2731 8.4 43.2731 9.32ZM40.8531 9.32C40.8531 8.58667 40.6598 8.01333 40.2731 7.6C39.8998 7.17333 39.4065 6.91333 38.7931 6.82C38.1931 6.72667 37.5465 6.82 36.8531 7.1V11.7C37.5598 12.1267 38.2131 12.3067 38.8131 12.24C39.4265 12.16 39.9198 11.8733 40.2931 11.38C40.6665 10.8733 40.8531 10.1867 40.8531 9.32ZM47.2828 14.5H44.8828V0.499999H47.2828V14.5ZM58.6573 10.42H51.6573C51.7107 11.02 51.9373 11.48 52.3373 11.8C52.7373 12.12 53.2307 12.3067 53.8173 12.36C54.404 12.4 55.004 12.32 55.6173 12.12C56.244 11.9067 56.804 11.5867 57.2973 11.16L58.6173 12.98C57.884 13.5933 57.1373 14.0333 56.3773 14.3C55.6307 14.5533 54.8907 14.68 54.1573 14.68C52.464 14.68 51.1907 14.2067 50.3373 13.26C49.4973 12.3133 49.0773 10.9733 49.0773 9.24C49.0773 8.25333 49.2707 7.39333 49.6573 6.66C50.0573 5.92667 50.6173 5.36 51.3373 4.96C52.0707 4.56 52.9307 4.36667 53.9173 4.38C56.0773 4.40667 57.5173 5.25333 58.2373 6.92C58.4373 7.4 58.564 7.92667 58.6173 8.5C58.684 9.07333 58.6973 9.71333 58.6573 10.42ZM54.1373 6.62C53.324 6.62 52.704 6.84 52.2773 7.28C51.864 7.72 51.6573 8.20667 51.6573 8.74H56.5973C56.5973 8.19333 56.384 7.70667 55.9573 7.28C55.544 6.84 54.9373 6.62 54.1373 6.62ZM74.7455 14.72C73.7855 14.72 72.8988 14.5333 72.0855 14.16C71.2721 13.7733 70.5521 13.2667 69.9255 12.64C69.2988 12 68.8055 11.2533 68.4455 10.4C68.0855 9.53333 67.9055 8.57333 67.9055 7.52C67.9055 6.49333 68.0855 5.54667 68.4455 4.68C68.8188 3.8 69.3121 3.03333 69.9255 2.38C70.5388 1.74 71.2521 1.23333 72.0655 0.859999C72.8921 0.486666 73.7855 0.299999 74.7455 0.299999C75.7588 0.299999 76.7255 0.533333 77.6455 1C78.5655 1.45333 79.4188 2.16 80.2055 3.12L78.2655 4.72C77.7188 4.04 77.1521 3.55333 76.5655 3.26C75.9788 2.95333 75.3721 2.8 74.7455 2.8C74.1455 2.8 73.5855 2.92 73.0655 3.16C72.5588 3.4 72.0988 3.73333 71.6855 4.16C71.2855 4.57333 70.9721 5.06667 70.7455 5.64C70.5188 6.2 70.4055 6.82667 70.4055 7.52C70.4055 8.21333 70.5188 8.84 70.7455 9.4C70.9721 9.94667 71.2855 10.4333 71.6855 10.86C72.0855 11.2867 72.5455 11.62 73.0655 11.86C73.5855 12.1 74.1455 12.22 74.7455 12.22C75.3721 12.22 75.9788 12.0733 76.5655 11.78C77.1521 11.4733 77.7188 10.98 78.2655 10.3L80.2055 11.9C79.4188 12.86 78.5655 13.5733 77.6455 14.04C76.7255 14.4933 75.7588 14.72 74.7455 14.72ZM91.7917 14.5L90.5317 13.14C89.6651 13.7933 88.8117 14.22 87.9717 14.42C87.1317 14.62 86.3384 14.6467 85.5917 14.5C84.8451 14.34 84.1851 14.0467 83.6117 13.62C83.0384 13.1933 82.5917 12.6867 82.2717 12.1C81.9517 11.5 81.7984 10.86 81.8117 10.18C81.8251 9.5 82.0384 8.82667 82.4517 8.16C82.8784 7.48 83.5517 6.86 84.4717 6.3L83.8517 5.46C83.4917 4.9 83.3184 4.32 83.3317 3.72C83.3451 3.10667 83.5051 2.54 83.8117 2.02C84.1317 1.5 84.5584 1.08 85.0917 0.759999C85.6384 0.426666 86.2451 0.26 86.9117 0.26C87.9917 0.26 88.8184 0.486666 89.3917 0.939999C89.9651 1.39333 90.4251 2.09333 90.7717 3.04L88.6317 3.8C88.4584 3.26667 88.2451 2.90667 87.9917 2.72C87.7384 2.52 87.3784 2.42667 86.9117 2.44C86.6184 2.44 86.3584 2.55333 86.1317 2.78C85.9051 2.99333 85.7584 3.24667 85.6917 3.54C85.6251 3.83333 85.6784 4.1 85.8517 4.34L90.4317 9.76C90.5117 9.38667 90.5717 8.96 90.6117 8.48C90.6651 8 90.6651 7.42 90.6117 6.74H92.7317C92.7584 7.76667 92.7317 8.66667 92.6517 9.44C92.5717 10.2 92.3451 10.8933 91.9717 11.52L94.7117 14.5H91.7917ZM89.0917 11.56L85.6917 7.72C85.0117 8.25333 84.5717 8.8 84.3717 9.36C84.1717 9.92 84.1584 10.44 84.3317 10.92C84.5184 11.3867 84.8451 11.7533 85.3117 12.02C85.7784 12.2867 86.3384 12.4 86.9917 12.36C87.6584 12.3067 88.3584 12.04 89.0917 11.56ZM96.5039 14.5V0.499999H101.824C102.557 0.499999 103.197 0.686666 103.744 1.06C104.291 1.42 104.711 1.9 105.004 2.5C105.311 3.1 105.464 3.75333 105.464 4.46C105.464 4.88667 105.397 5.32667 105.264 5.78C105.131 6.23333 104.931 6.65333 104.664 7.04C105.117 7.41333 105.471 7.88 105.724 8.44C105.977 9 106.104 9.6 106.104 10.24C106.104 10.76 106.004 11.2733 105.804 11.78C105.617 12.2867 105.351 12.7467 105.004 13.16C104.671 13.56 104.277 13.8867 103.824 14.14C103.384 14.38 102.911 14.5 102.404 14.5H96.5039ZM98.9639 6.3H101.764C102.004 6.3 102.217 6.20667 102.404 6.02C102.591 5.83333 102.737 5.6 102.844 5.32C102.964 5.04 103.024 4.75333 103.024 4.46C103.024 4.07333 102.917 3.73333 102.704 3.44C102.491 3.14667 102.197 3 101.824 3H98.9639V6.3ZM98.9639 12H102.404C102.617 12 102.817 11.9133 103.004 11.74C103.191 11.5533 103.344 11.3267 103.464 11.06C103.584 10.7933 103.644 10.52 103.644 10.24C103.644 9.81333 103.531 9.45333 103.304 9.16C103.091 8.85333 102.811 8.7 102.464 8.7H98.9639V12Z" fill="black"/>
</svg>
